<svg xmlns="http://www.w3.org/2000/svg" viewBox="0 0 1200 630">
	<defs>
		<linearGradient id="kioku-background" x1="0" y1="0" x2="1" y2="1">
			<stop offset="0" stop-color="#071912" />
			<stop offset="1" stop-color="#0b2a24" />
		</linearGradient>
		<linearGradient id="kioku-accent" x1="0" y1="0" x2="1" y2="0">
			<stop offset="0" stop-color="#2dd4bf" />
			<stop offset="1" stop-color="#a3e635" />
		</linearGradient>
	</defs>
	<rect width="1200" height="630" fill="url(#kioku-background)" />
	<g fill="none" stroke="#5eead4" stroke-width="3" opacity="0.35">
		<path d="M90 96h1020M90 534h1020" />
		<path d="M90 96v438M1110 96v438" />
	</g>
	<g font-family="ui-monospace, SFMono-Regular, Menlo, monospace">
		<text x="90" y="70" fill="#ecfdf5" font-size="28" letter-spacing="8">KIOKU // MCP SERVER</text>
		<text x="90" y="585" fill="#94a3b8" font-size="22">MODEL CONTEXT PROTOCOL · MULTI-AGENT HANDOFF · .NET 10</text>
	</g>
	<g font-family="ui-monospace, SFMono-Regular, Menlo, monospace" text-anchor="middle">
		<rect x="105" y="170" width="230" height="126" rx="8" fill="#0f172a" stroke="#34d399" stroke-width="4" />
		<text x="220" y="216" fill="#f8fafc" font-size="24">AI AGENT</text>
		<text x="220" y="248" fill="#cbd5e1" font-size="18">MCP CLIENT</text>
		<text x="220" y="274" fill="#cbd5e1" font-size="16">STDIO · HTTP</text>

		<rect x="485" y="118" width="230" height="102" rx="8" fill="#0f172a" stroke="#22d3ee" stroke-width="4" />
		<text x="600" y="164" fill="#f8fafc" font-size="24">MCP ADAPTER</text>
		<text x="600" y="196" fill="#cbd5e1" font-size="17">TOOLS · PROMPTS</text>

		<rect x="865" y="170" width="230" height="126" rx="8" fill="#0f172a" stroke="#5eead4" stroke-width="4" />
		<text x="980" y="216" fill="#f8fafc" font-size="24">AI AGENT</text>
		<text x="980" y="248" fill="#cbd5e1" font-size="18">NEXT SESSION</text>
		<text x="980" y="274" fill="#cbd5e1" font-size="16">SEPARATE PROCESS</text>

		<rect x="105" y="330" width="325" height="90" rx="8" fill="#0f172a" stroke="#fbbf24" stroke-width="4" />
		<text x="267" y="368" fill="#f8fafc" font-size="21">APPLICATION</text>
		<text x="267" y="394" fill="#cbd5e1" font-size="16">CONTRACTS</text>

		<rect x="437" y="330" width="326" height="90" rx="8" fill="#0f172a" stroke="#a78bfa" stroke-width="4" />
		<text x="600" y="368" fill="#f8fafc" font-size="21">WORKFLOW</text>
		<text x="600" y="394" fill="#cbd5e1" font-size="16">SERVICES</text>

		<rect x="770" y="330" width="325" height="90" rx="8" fill="#0f172a" stroke="#38bdf8" stroke-width="4" />
		<text x="932" y="368" fill="#f8fafc" font-size="21">DOMAIN / INFRA</text>
		<text x="932" y="394" fill="#cbd5e1" font-size="16">PORTS</text>

		<rect x="330" y="454" width="540" height="62" rx="8" fill="#0f172a" stroke="url(#kioku-accent)" stroke-width="4" />
		<text x="600" y="493" fill="#f8fafc" font-size="20">OBSIDIAN VAULT — MARKDOWN + YAML FRONTMATTER</text>
	</g>
	<g fill="none" stroke="#ecfdf5" stroke-width="4" stroke-linecap="square">
		<path d="M335 220h150" />
		<path d="M715 220h150" />
		<path d="M267 296v34" />
		<path d="M600 220v54" />
		<path d="M932 296v34" />
		<path d="M600 420v34" />
	</g>
	<g fill="#ecfdf5">
		<path d="m485 220-14-9v18z" />
		<path d="m865 220-14-9v18z" />
		<path d="m267 330-9-14h18z" />
		<path d="m600 274-9-14h18z" />
		<path d="m932 330-9-14h18z" />
		<path d="m600 454-9-14h18z" />
	</g>
</svg>
