<?xml version="1.0" encoding="UTF-8"?>
<svg version="1.1" xmlns="http://www.w3.org/2000/svg" width="408" height="480">
<path d="M0 0 C5.17625976 1.97772189 9.03196805 5.31964193 12 10 C14.31996762 15.21992715 15.09885999 20.55866003 13.34765625 26.04296875 C11.29377388 30.60029573 8.60491656 33.68180823 4.78125 36.87109375 C-2.05156413 45.03750537 -1.65295176 54.22836322 -1.57641602 64.36499023 C-1.56254656 66.92889266 -1.59669364 69.48913861 -1.63476562 72.05273438 C-1.68521958 82.93286952 -0.38129393 90.19774588 6.3125 99.0625 C8.6436514 103.12043022 8.80002277 106.42386976 8 111 C6.97304436 113.57786823 5.60110927 115.74216455 4 118 C-0.45104405 124.48580705 -1.16487689 128.61669458 -1.23828125 136.421875 C-1.246353 137.24069153 -1.25442474 138.05950806 -1.26274109 138.90313721 C-1.27655054 140.63462222 -1.28728669 142.3661341 -1.29516602 144.09765625 C-1.30667574 145.85880575 -1.3271117 147.61992065 -1.35668945 149.38085938 C-1.39958597 151.93643705 -1.41556531 154.49098096 -1.42578125 157.046875 C-1.44328934 157.82424011 -1.46079742 158.60160522 -1.47883606 159.40252686 C-1.45303914 165.99179733 0.53761149 171.10338384 4.81640625 176.13671875 C5.39261719 176.64847656 5.96882813 177.16023437 6.5625 177.6875 C11.72241321 182.54908847 13.65415691 186.6568501 14.375 193.625 C14.29359039 199.06926746 11.97897526 203.53542612 9 208 C7.00334402 209.67067133 5.00348966 211.33752986 3 213 C-2.4579805 220.33980181 -1.60750343 229.74523087 -1.52148438 238.41992188 C-1.50004623 240.99444786 -1.5213466 243.56618414 -1.546875 246.140625 C-1.56550833 257.3223184 -0.64090493 265.30517715 7 274 C8.85505299 277.71010597 8.4527329 281.95055571 8 286 C6.3125 289 6.3125 289 4 292 C-1.95502674 300.28379564 -1.74187786 308.76636308 -1.59692383 318.55029297 C-1.56247217 321.12708172 -1.57634093 323.70045662 -1.59570312 326.27734375 C-1.58880635 327.9375144 -1.57913548 329.59767633 -1.56640625 331.2578125 C-1.57384605 332.39562668 -1.57384605 332.39562668 -1.58143616 333.556427 C-1.43865141 340.11944072 0.61176338 345.35964627 5.03515625 350.25 C5.70417969 350.8275 6.37320313 351.405 7.0625 352 C12.16069764 356.86085138 13.66899058 361.0209152 14.4375 367.9375 C14.19115849 373.37843427 12.17482678 378.48306564 8.609375 382.609375 C3.69613636 387.00543063 -1.4650832 388.44880223 -7.98828125 388.25 C-14.07393871 387.49372412 -18.75996202 384.24003798 -23 380 C-26.2481285 374.47818154 -26.8659712 369.25861003 -26 363 C-24.55119372 358.20514111 -22.14941893 354.99188327 -18.5 351.625 C-12.79016074 346.14445858 -10.87969809 339.91857579 -10.54690552 332.06030273 C-10.48811755 329.10997274 -10.49234772 326.16418797 -10.53344727 323.21362305 C-10.5624949 320.93789962 -10.55400357 318.66450302 -10.54101562 316.38867188 C-10.55397701 306.71187136 -11.0891589 298.27435069 -17.125 290.3125 C-20.44257369 285.55070891 -21.40719255 282.44315529 -20.4375 276.625 C-18.92417304 272.80878419 -17.09380549 270.26881437 -14.4375 267.1875 C-10.99889952 261.95484709 -10.69133328 256.03547662 -10.69921875 249.94140625 C-10.69493362 249.1934227 -10.6906485 248.44543915 -10.68623352 247.67478943 C-10.6805246 246.10245775 -10.67996441 244.53009967 -10.68432617 242.95776367 C-10.68748703 240.5722892 -10.66398228 238.18805611 -10.63867188 235.80273438 C-10.63639836 234.26562654 -10.63569563 232.72851542 -10.63671875 231.19140625 C-10.627509 230.48907364 -10.61829926 229.78674103 -10.60881042 229.06312561 C-10.66625361 222.81482065 -11.9550331 217.21077502 -16.3125 212.5 C-17.199375 211.675 -18.08625 210.85 -19 210 C-24.9641407 202.72805978 -26.93638902 197.52441408 -26 188 C-24.58754143 183.57543099 -21.8473078 180.79005841 -18.5 177.6875 C-12.22280214 171.54788212 -10.67556076 164.51753599 -10.50390625 155.90234375 C-10.49073004 153.67185981 -10.50238049 151.4439287 -10.53344727 149.21362305 C-10.5624949 146.93789962 -10.55400357 144.66450302 -10.54101562 142.38867188 C-10.55397701 132.71187136 -11.0891589 124.27435069 -17.125 116.3125 C-20.44257369 111.55070891 -21.40719255 108.44315529 -20.4375 102.625 C-18.92417304 98.80878419 -17.09380549 96.26881437 -14.4375 93.1875 C-10.99889952 87.95484709 -10.69133328 82.03547662 -10.69921875 75.94140625 C-10.69493362 75.1934227 -10.6906485 74.44543915 -10.68623352 73.67478943 C-10.6805246 72.10245775 -10.67996441 70.53009967 -10.68432617 68.95776367 C-10.68748703 66.5722892 -10.66398228 64.18805611 -10.63867188 61.80273438 C-10.63639836 60.26562654 -10.63569563 58.72851542 -10.63671875 57.19140625 C-10.627509 56.48907364 -10.61829926 55.78674103 -10.60881042 55.06312561 C-10.66625361 48.81482065 -11.9550331 43.21077502 -16.3125 38.5 C-17.199375 37.675 -18.08625 36.85 -19 36 C-25.01827332 28.66205711 -26.75530285 23.571747 -26 14 C-21.73827565 1.8877308 -11.83161332 -1.52896452 0 0 Z " fill="#80BB3A" transform="translate(210,12)"/>
<path d="M0 0 C5.27888417 3.09191787 8.12216431 7.35851604 10.0859375 13.06640625 C11.23417412 18.47817722 10.49658835 23.48168683 8 28.375 C5.23137927 31.71154293 2.34454543 34.91490097 -0.6328125 38.06640625 C-6.17212738 44.9605752 -5.61935039 53.72403074 -5.625 62.125 C-5.64336914 63.54522461 -5.64336914 63.54522461 -5.66210938 64.99414062 C-5.67997837 73.64868913 -5.08922181 81.40484001 0.5625 88.3125 C2.0784375 89.55 2.0784375 89.55 3.625 90.8125 C8.10278826 94.62338362 9.59057042 98.36519117 10.5 104.0625 C10.90594319 109.79752714 9.56213608 114.42104798 6.5625 119.3125 C4.88090457 120.98631027 3.1297941 122.38637959 1.2421875 123.8203125 C-3.31106407 127.86529412 -4.65463557 133.49139096 -5.4375 139.3125 C-5.57697372 142.37818799 -5.57778305 145.43934865 -5.5703125 148.5078125 C-5.57126923 149.37767792 -5.57222595 150.24754333 -5.57321167 151.14376831 C-5.57388953 152.97426425 -5.57206281 154.80476264 -5.56787109 156.63525391 C-5.56250426 159.43527613 -5.5678361 162.2351389 -5.57421875 165.03515625 C-5.57355815 166.81770869 -5.57227737 168.60026102 -5.5703125 170.3828125 C-5.57233673 171.2182962 -5.57436096 172.05377991 -5.57644653 172.9145813 C-5.57329437 173.6957431 -5.57014221 174.47690491 -5.56689453 175.28173828 C-5.56609894 175.96535431 -5.56530334 176.64897034 -5.56448364 177.353302 C-5.42926044 179.43962607 -5.00285026 181.30345303 -4.4375 183.3125 C2.16397673 185.03728901 5.65498641 183.30659523 11.4375 180 C12.25814941 179.5464917 13.07879883 179.0929834 13.92431641 178.62573242 C15.63035238 177.67711618 17.33135076 176.71938676 19.02734375 175.75292969 C21.47320626 174.36323508 23.93666084 173.01101927 26.40625 171.6640625 C27.91786994 170.8198593 29.4283392 169.97359152 30.9375 169.125 C31.63214355 168.74625732 32.32678711 168.36751465 33.04248047 167.97729492 C38.84611551 164.62200136 42.48023517 160.65193974 44.56640625 154.21484375 C44.75074219 153.23644531 44.93507813 152.25804687 45.125 151.25 C46.73161138 144.06063848 49.39918018 139.52159646 55.5625 135.3125 C60.23754472 132.64104587 65.32827697 132.67418012 70.5625 133.3125 C77.41672651 135.40684699 81.30988507 139.4508744 84.875 145.5625 C86.55765455 152.29311819 86.31392109 158.48299845 82.828125 164.55859375 C79.43480825 169.26106048 75.2665362 172.05761204 69.5625 173.3125 C65.2140708 173.59304382 61.69261038 173.4478297 57.5 172.3125 C45.14466031 168.99530763 35.4003896 176.30522515 24.875 182.125 C23.22274414 183.01155273 23.22274414 183.01155273 21.53710938 183.91601562 C13.34640279 188.44883273 7.75584471 192.78255969 4 201.5 C2.06527796 205.51592145 0.64226219 208.17989704 -3.4375 210.3125 C-8.1157641 211.5659217 -11.58614637 211.5637191 -16.25 210.1875 C-20.29347776 207.80898367 -22.73625639 205.88533864 -24.00390625 201.234375 C-24.87798117 195.8243113 -24.30370453 192.12032695 -21.4375 187.3125 C-19.53864987 185.4531065 -17.56134261 183.92846721 -15.4375 182.3125 C-14.28278518 180.00307036 -14.29913498 178.65191945 -14.27636719 176.08154297 C-14.26675964 175.20658173 -14.2571521 174.33162048 -14.24725342 173.43014526 C-14.24300354 172.4812442 -14.23875366 171.53234314 -14.234375 170.5546875 C-14.22867493 169.57766876 -14.22297485 168.60065002 -14.21710205 167.59402466 C-14.20764187 165.52102748 -14.20111404 163.44801519 -14.19726562 161.375 C-14.18760288 158.22108158 -14.15660678 155.06782669 -14.125 151.9140625 C-14.1184656 149.89844136 -14.11321685 147.88281557 -14.109375 145.8671875 C-14.0908548 144.46205399 -14.0908548 144.46205399 -14.07196045 143.02853394 C-14.09597403 135.87611162 -15.01980338 130.11420678 -19.84765625 124.51953125 C-21.16056641 123.33423828 -21.16056641 123.33423828 -22.5 122.125 C-26.86960373 118.15321628 -29.0700895 115.40985599 -29.7734375 109.48046875 C-29.85947222 102.91601932 -29.57684262 97.62244388 -25.4375 92.3125 C-24.29978481 91.31996888 -23.13133933 90.36176271 -21.9375 89.4375 C-17.48327249 85.87008702 -15.8725415 81.76214688 -14.4375 76.3125 C-13.91342209 71.42321086 -13.92229999 66.60014571 -14 61.6875 C-13.99291016 60.41648438 -13.98582031 59.14546875 -13.97851562 57.8359375 C-14.03307924 49.77731162 -14.17874665 43.14980014 -19.59375 36.7734375 C-20.3671875 36.08507812 -21.140625 35.39671875 -21.9375 34.6875 C-27.35704416 29.49707478 -29.55184348 26.03167814 -29.875 18.4375 C-29.71141732 12.93703249 -28.90892417 8.67196291 -25.4375 4.3125 C-18.35502918 -2.12610984 -8.92201238 -4.15913359 0 0 Z " fill="#BDDC3E" transform="translate(289.4375,139.6875)"/>
<path d="M0 0 C4.98549772 3.44236747 8.6260653 7.02611009 10.625 12.8125 C11.32855047 18.9728566 11.60783481 24.88719256 8.03515625 30.17578125 C5.73736407 32.8427478 3.17688574 35.21344431 0.52734375 37.52734375 C-5.48067453 44.74436777 -4.86228324 53.26272286 -4.8125 62.1875 C-4.83248047 63.45078125 -4.85246094 64.7140625 -4.87304688 66.015625 C-4.86913223 73.54740283 -4.36067568 80.24881057 -0.375 86.8125 C1.31796588 88.47563389 3.06670504 89.89236842 4.94140625 91.34375 C8.82944466 94.73563502 10.35248835 98.70264174 11.00390625 103.74609375 C11.24939135 110.08911191 10.83731856 114.92341003 6.625 119.8125 C4.6363765 121.77711597 2.63306944 123.68837026 0.52734375 125.52734375 C-4.57349562 131.6546354 -4.8420957 138.64511504 -4.84375 146.26171875 C-4.85136353 147.23736282 -4.85897705 148.2130069 -4.86682129 149.21821594 C-4.87757022 151.2679286 -4.88049673 153.31769579 -4.87597656 155.36743164 C-4.87499946 158.50173439 -4.91678004 161.63362508 -4.9609375 164.76757812 C-4.96614165 166.76561992 -4.96883274 168.76367018 -4.96875 170.76171875 C-4.98514526 171.69513596 -5.00154053 172.62855316 -5.01843262 173.59025574 C-4.96989361 178.15305412 -4.91440654 180.14005523 -1.97851562 183.80004883 C-1.11935547 184.46415771 -0.26019531 185.1282666 0.625 185.8125 C4.26516584 189.45266584 5.44958659 192.42633215 5.77734375 197.46875 C5.5101177 201.57992005 4.23733617 204.63475408 1.625 207.8125 C-2.08172588 210.7909729 -5.73477927 212.16852224 -10.5 211.8125 C-14.46437235 211.26803685 -17.26747266 209.25442031 -20.375 206.8125 C-22.32102378 203.66798558 -23.80696108 200.44935524 -25.37109375 197.1015625 C-30.20076315 189.17450278 -38.26908422 185.3407757 -46.21899414 181.00610352 C-48.07409724 179.99367074 -49.9211389 178.96758683 -51.76757812 177.93945312 C-60.31015757 173.22662654 -67.04138394 170.00289541 -76.875 172.8125 C-83.81522163 174.79542047 -88.92702075 174.27530367 -95.375 170.8125 C-100.05000304 167.57595943 -103.1023509 164.41846671 -104.375 158.8125 C-105.11542548 152.69713397 -105.01814756 147.00386829 -101.8125 141.60546875 C-98.07922547 136.94902036 -94.06983522 134.20254194 -88.109375 133.33984375 C-82.29962471 133.18730464 -77.15409336 133.19903917 -72.375 136.8125 C-67.43181769 141.65993059 -65.02988026 145.91231598 -63.5 152.6875 C-61.65417138 159.88218967 -59.41803307 163.44271938 -53.125 167.4375 C-51.32017095 168.47558505 -49.51355101 169.51087392 -47.69238281 170.52001953 C-44.92077693 172.06583512 -42.17763276 173.65861295 -39.4296875 175.24609375 C-37.28781217 176.45812476 -35.14457139 177.66774582 -33 178.875 C-31.96584961 179.47199707 -30.93169922 180.06899414 -29.86621094 180.68408203 C-23.86888321 184.20087172 -23.86888321 184.20087172 -17.1484375 184.68359375 C-16.23320313 184.39613281 -15.31796875 184.10867188 -14.375 183.8125 C-13.59097051 181.02866788 -13.24164642 178.53473022 -13.21386719 175.64575195 C-13.20425964 174.83423172 -13.1946521 174.02271149 -13.18475342 173.18659973 C-13.18050354 172.31677963 -13.17625366 171.44695953 -13.171875 170.55078125 C-13.16617493 169.64555222 -13.16047485 168.74032318 -13.15460205 167.80766296 C-13.14516427 165.89205082 -13.13862292 163.97642253 -13.13476562 162.06079102 C-13.12509268 159.15286299 -13.09407125 156.24565192 -13.0625 153.33789062 C-13.05596599 151.47135834 -13.05071708 149.60482102 -13.046875 147.73828125 C-13.0283548 146.44873283 -13.0283548 146.44873283 -13.00946045 145.13313293 C-13.04201889 136.15809332 -15.15563813 129.32802195 -21.375 122.8125 C-22.24125 122.02875 -23.1075 121.245 -24 120.4375 C-27.58697248 116.47295147 -29.21794927 112.71793844 -29.5078125 107.35546875 C-29.1838222 101.1520075 -27.35908423 96.57777722 -23.375 91.8125 C-21.71229713 90.47422696 -20.04583819 89.14060215 -18.375 87.8125 C-12.80996749 80.27457971 -13.16940294 72.09849821 -13.125 63.0625 C-13.104375 62.02867187 -13.08375 60.99484375 -13.0625 59.9296875 C-13.02178842 51.84843927 -13.69745176 44.52323261 -18.53125 37.82421875 C-19.69140625 36.67373047 -19.69140625 36.67373047 -20.875 35.5 C-25.90160786 30.43150374 -28.85520074 26.39677666 -29.44140625 19.21875 C-29.29505947 13.91583135 -27.38431947 9.49469912 -24.6875 5 C-17.68542362 -1.62358577 -9.13064418 -3.21263406 0 0 Z " fill="#BCDC3E" transform="translate(137.375,139.1875)"/>
<path d="M0 0 C5.65498868 3.64432604 7.43837722 7.97701344 9.296875 14.21484375 C13.99005816 22.25857262 24.64184234 26.24194921 32.5625 30.5625 C33.79326596 31.24034606 35.02373685 31.91872814 36.25390625 32.59765625 C39.43345874 34.34841909 42.61568898 36.09336564 45.8125 37.8125 C46.53856445 38.2034082 47.26462891 38.59431641 48.01269531 38.99707031 C50.75999076 40.24177552 52.82333102 40.10555578 55.8125 39.8125 C56.823125 39.3175 57.83375 38.8225 58.875 38.3125 C64.2643251 35.83890733 70.03682401 35.96744946 75.8125 36.8125 C80.86612145 38.80908272 84.59304517 41.81511079 87.375 46.5 C89.70583216 52.11762773 89.84441252 58.18145782 88.1875 64.01171875 C86.0419328 68.88713707 82.68306568 72.17939344 78.71484375 75.66015625 C73.96902676 81.02965351 73.35273302 86.66246029 73.37890625 93.52734375 C73.3736644 94.34191544 73.36842255 95.15648712 73.36302185 95.9957428 C73.35663174 97.70930854 73.3578994 99.42291832 73.36645508 101.13647461 C73.37496591 103.73957401 73.34616263 106.3404761 73.31445312 108.94335938 C73.31284068 110.61718685 73.31341947 112.29101816 73.31640625 113.96484375 C73.30517227 114.7327977 73.29393829 115.50075165 73.28236389 116.29197693 C73.37275879 123.39940343 76.04061025 128.95118453 80.5 134.4375 C82.79355199 137.59024639 83.8125 139.80608162 83.8125 143.8125 C82.87779394 148.50242864 81.728387 151.896613 78.3125 155.3125 C73.94614118 157.93231529 69.81415811 158.46409216 64.8125 157.8125 C60.90993287 156.46012525 58.31362725 154.50761199 55.875 151.125 C54.51387469 146.88149169 54.0889811 143.22517019 54.8125 138.8125 C56.5625 135.625 56.5625 135.625 58.8125 132.8125 C63.07187728 126.60597882 63.98488469 122.4939485 64.05078125 115.05078125 C64.06288887 113.7538459 64.06288887 113.7538459 64.07524109 112.43070984 C64.08907082 110.59909055 64.09979795 108.76744561 64.10766602 106.93579102 C64.12482948 104.15265087 64.16871882 101.37071433 64.21289062 98.58789062 C64.22302258 96.8046962 64.23153711 95.02149171 64.23828125 93.23828125 C64.26454338 92.00190666 64.26454338 92.00190666 64.29133606 90.74055481 C64.27015434 85.01685912 63.11094806 80.55946892 59.8125 75.8125 C58.33188599 74.61540782 56.85014965 73.41868923 55.33203125 72.26953125 C50.14722683 67.29798357 48.27314801 59.80233708 47.171875 52.94140625 C46.83856254 50.63417823 46.83856254 50.63417823 45.8125 47.8125 C44.06060579 46.75252845 44.06060579 46.75252845 41.8125 45.8125 C39.79103094 44.70879923 37.77466646 43.59572917 35.76171875 42.4765625 C35.18468704 42.15593842 34.60765533 41.83531433 34.01313782 41.50497437 C32.7950743 40.82793775 31.57723923 40.15049001 30.35961914 39.47265625 C28.51697498 38.44694912 26.6735903 37.42258355 24.83007812 36.3984375 C24.23612747 36.06812027 23.64217682 35.73780304 23.03022766 35.3974762 C21.30136639 34.43610934 19.5719542 33.47573341 17.8425293 32.51538086 C15.43434691 31.16197886 13.05786444 29.77303039 10.6875 28.35546875 C6.66222254 26.19516359 3.2094752 26.2132562 -1.1875 27.3125 C-5.88919895 28.48792474 -9.40153103 28.13221619 -13.875 26.3125 C-17.89781473 23.73353977 -19.92497131 20.38086038 -21.1875 15.8125 C-21.60744362 10.20625262 -19.85766367 6.07782535 -16.1875 1.8125 C-10.79831585 -1.78028944 -6.06769354 -2.26051328 0 0 Z " fill="#80BB3A" transform="translate(286.1875,62.1875)"/>
<path d="M0 0 C4.02281473 2.57896023 6.04997131 5.93163962 7.3125 10.5 C7.63825036 14.84876732 6.59741775 17.91920613 4.6875 21.8125 C1.94064901 24.92077875 -0.7188342 26.46757028 -4.6875 27.5 C-6.57419523 27.34061709 -8.46508591 27.17376606 -10.33007812 26.84692383 C-21.95558298 24.87464083 -29.64518267 29.88380544 -39.20654297 35.95263672 C-41.64446498 37.47315923 -44.11685612 38.89113122 -46.62890625 40.28515625 C-48.16937756 41.14824703 -49.70974695 42.01151976 -51.25 42.875 C-51.95833984 43.2666333 -52.66667969 43.6582666 -53.39648438 44.06176758 C-57.33922986 46.34729751 -59.82882475 48.1653038 -61.6875 52.5 C-62.31930096 55.18109949 -62.31930096 55.18109949 -62.625 57.9375 C-63.87228924 65.45141177 -67.44767162 69.55859348 -73.00390625 74.49609375 C-77.64765183 80.02333617 -78.14607131 85.72884761 -78.12109375 92.65234375 C-78.12895653 93.94078941 -78.12895653 93.94078941 -78.13697815 95.25526428 C-78.14337101 97.06298751 -78.14209699 98.87075249 -78.13354492 100.6784668 C-78.12503444 103.42638053 -78.15383403 106.17221293 -78.18554688 108.91992188 C-78.18715929 110.68489522 -78.18658059 112.4498722 -78.18359375 114.21484375 C-78.19482773 115.02654526 -78.20606171 115.83824677 -78.21763611 116.67454529 C-78.11935731 124.82134577 -74.91208455 130.37462501 -69.6875 136.5 C-67.94476912 139.98546176 -68.24467725 143.6892296 -68.6875 147.5 C-70.014626 151.46621085 -71.98628863 154.00596471 -75.4375 156.4375 C-80.68254143 158.15222508 -84.71608921 158.18241143 -89.9375 156.375 C-94.06311889 153.56207803 -96.19482859 151.00671216 -97.17578125 146.015625 C-97.6786856 139.03412929 -95.7752165 135.15525611 -91.4140625 129.7890625 C-87.67655426 124.83390452 -87.3583503 120.10478444 -87.31640625 114.05078125 C-87.30737778 113.23812302 -87.2983493 112.42546478 -87.28904724 111.58818054 C-87.27457443 109.87108015 -87.2656654 108.15392497 -87.26196289 106.43676758 C-87.25011502 103.83773165 -87.20094572 101.24111019 -87.15039062 98.64257812 C-87.01169509 85.80734873 -87.01169509 85.80734873 -92.6875 74.5 C-94.16998345 73.07788375 -94.16998345 73.07788375 -95.75 71.875 C-100.23475485 68.24902799 -102.30927733 64.4917838 -103.03515625 58.75 C-103.25699151 51.65127173 -102.07155476 47.27065823 -97.375 41.8125 C-91.5957489 36.83965603 -87.06597594 36.02908942 -79.5859375 36.1953125 C-76.97548302 36.46972685 -75.21798519 36.88681699 -72.875 38 C-69.18499509 39.7364729 -66.64127445 40.32193787 -62.6875 39.5 C-58.42512116 37.61890011 -54.45248182 35.29349706 -50.4375 32.9375 C-49.36886719 32.32841797 -48.30023438 31.71933594 -47.19921875 31.09179688 C-31.51148381 23.40184142 -31.51148381 23.40184142 -21.875 10.125 C-20.05662963 4.83773847 -18.38076691 2.49570229 -13.6875 -0.5 C-8.62587164 -2.18720945 -4.95320096 -2.01486141 0 0 Z " fill="#80BA3A" transform="translate(135.6875,62.5)"/>
<path d="M0 0 C4.66743313 2.64959335 6.94520519 6.33561558 8.625 11.375 C9.40873488 17.88899317 8.41352352 22.97329873 4.625 28.375 C-0.69233319 33.43295109 -5.27118326 33.72938931 -12.359375 33.65234375 C-16.82520062 33.24162663 -18.85299704 32.16325234 -22.375 29.375 C-26.86083144 23.7086866 -27.86032952 19.53361045 -27.375 12.375 C-25.57196376 6.32952555 -22.49909223 2.84540792 -17.375 -0.625 C-11.62113793 -2.54295402 -5.56893183 -2.51803484 0 0 Z M-16.375 8.375 C-18.6019509 11.60767067 -19.39272383 13.50653245 -19.3125 17.4375 C-18.17479627 21.00230504 -17.17429375 22.8628133 -14.375 25.375 C-11.6251585 26.43623947 -9.30146218 26.74010565 -6.375 26.375 C-3.05696298 24.50483368 -0.99682002 23.11120533 0.3203125 19.43359375 C0.93092654 16.0102576 0.80018598 13.83872759 -0.4375 10.5625 C-2.81223278 7.88135009 -5.07171376 6.71037103 -8.375 5.375 C-11.62706208 5.375 -13.63184143 6.69551516 -16.375 8.375 Z " fill="#38854E" transform="translate(353.375,434.625)"/>
<path d="M0 0 C1.28648438 -0.02578125 2.57296875 -0.0515625 3.8984375 -0.078125 C8.55292244 0.33170386 11.833463 1.5776151 15.26953125 4.78515625 C20.07507402 11.06932756 20.1794846 15.41533797 19.625 23.25 C17.88884225 28.55492646 14.9797618 31.00709228 10.625 34.25 C7.35889423 35.88305288 3.77236773 35.39276152 0.1875 35.375 C-0.58916016 35.37886719 -1.36582031 35.38273437 -2.16601562 35.38671875 C-5.48581172 35.38099989 -8.20493506 35.30668831 -11.375 34.25 C-11.375 23.36 -11.375 12.47 -11.375 1.25 C-7.3985222 0.25588055 -4.08715854 0.04894801 0 0 Z M-3.375 8.25 C-3.40388514 11.39581423 -3.42175923 14.54159469 -3.4375 17.6875 C-3.44587891 18.58533203 -3.45425781 19.48316406 -3.46289062 20.40820312 C-3.46611328 21.26220703 -3.46933594 22.11621094 -3.47265625 22.99609375 C-3.47789307 23.78685303 -3.48312988 24.5776123 -3.48852539 25.39233398 C-3.57995909 27.26592689 -3.57995909 27.26592689 -2.375 28.25 C2.58960138 28.63189241 5.68357534 28.40313973 9.625 25.25 C12.19132517 21.82823311 11.98935051 18.40359579 11.625 14.25 C10.2560355 11.00771567 9.33495821 9.64234532 6.25 7.9375 C2.73941072 7.01805995 -0.07156466 6.59828233 -3.375 8.25 Z " fill="#38844E" transform="translate(21.375,432.75)"/>
<path d="M0 0 C4.66400404 2.67391209 8.08572798 5.89702005 9.640625 11.12890625 C10.42680927 17.33705102 10.38227021 22.89060295 6.640625 28.12890625 C0.82617074 33.81931882 -3.16839575 34.48057696 -11.15234375 34.41015625 C-16.65430337 33.92764578 -19.15054853 31.50108765 -22.671875 27.50390625 C-26.46852699 22.16047011 -25.91887519 16.5087626 -25.359375 10.12890625 C-23.22464242 5.62224857 -20.44115371 2.95475305 -16.359375 0.12890625 C-11.09387166 -1.62626153 -5.26334027 -1.94325311 0 0 Z M-15.359375 9.12890625 C-17.74446841 12.05606635 -17.84539653 15.44093484 -17.734375 19.16015625 C-17.05833503 22.70936611 -15.22829759 24.11455635 -12.359375 26.12890625 C-8.41805598 27.2549974 -6.34103038 27.54338297 -2.546875 25.94140625 C0.92675281 23.06325749 1.49935643 21.21869235 2.078125 16.75390625 C1.51276013 12.06945444 0.09905218 10.28660063 -3.359375 7.12890625 C-8.23768721 5.36441035 -11.09426286 6.31780961 -15.359375 9.12890625 Z " fill="#38844E" transform="translate(186.359375,433.87109375)"/>
<path d="M0 0 C5.09802839 1.01960568 5.74903833 1.26113963 8.98828125 4.81640625 C9.69404297 5.58017578 10.39980469 6.34394531 11.12695312 7.13085938 C11.84818359 7.93330078 12.56941406 8.73574219 13.3125 9.5625 C14.05306641 10.36880859 14.79363281 11.17511719 15.55664062 12.00585938 C17.38093307 13.99492662 19.1917868 15.99630429 21 18 C21.33 12.39 21.66 6.78 22 1 C24.64 1 27.28 1 30 1 C30 12.22 30 23.44 30 35 C24.36694678 33.87338936 24.36694678 33.87338936 21.625 30.9375 C21.03589844 30.31359375 20.44679688 29.6896875 19.83984375 29.046875 C17.35941649 26.28733385 14.89753249 23.51451725 12.48046875 20.69921875 C11.36828828 19.42270555 10.19716986 18.19716986 9 17 C8.67 22.94 8.34 28.88 8 35 C5.36 35 2.72 35 0 35 C0 23.45 0 11.9 0 0 Z " fill="#38854E" transform="translate(368,433)"/>
<path d="M0 0 C8.25 0 16.5 0 25 0 C25 1.98 25 3.96 25 6 C19.39 6 13.78 6 8 6 C8 8.31 8 10.62 8 13 C12.95 13 17.9 13 23 13 C23 15.31 23 17.62 23 20 C18.05 20 13.1 20 8 20 C8 22.31 8 24.62 8 27 C13.61 27 19.22 27 25 27 C25 29.31 25 31.62 25 34 C16.75 34 8.5 34 0 34 C0 22.78 0 11.56 0 0 Z " fill="#39834E" transform="translate(47,434)"/>
<path d="M0 0 C2.31 0 4.62 0 7 0 C7.01981934 0.60996826 7.03963867 1.21993652 7.06005859 1.84838867 C7.15567876 4.62850533 7.26520705 7.40790846 7.375 10.1875 C7.4059375 11.14720703 7.436875 12.10691406 7.46875 13.09570312 C7.50742188 14.02705078 7.54609375 14.95839844 7.5859375 15.91796875 C7.6173584 16.77156982 7.6487793 17.6251709 7.68115234 18.50463867 C8.04094828 21.32046891 8.69486846 23.47808513 10 26 C13.59356359 27.0704232 15.4268387 27.19105377 19 26 C20.28605661 23.42788678 20.21043941 21.43093034 20.31640625 18.5546875 C20.35830078 17.47832031 20.40019531 16.40195312 20.44335938 15.29296875 C20.48267578 14.16503906 20.52199219 13.03710938 20.5625 11.875 C20.60568359 10.73933594 20.64886719 9.60367187 20.69335938 8.43359375 C20.7996604 5.62252232 20.90169405 2.81136055 21 0 C23.64 0 26.28 0 29 0 C29.08725659 4.2290362 29.1404789 8.45784012 29.1875 12.6875 C29.21263672 13.88568359 29.23777344 15.08386719 29.26367188 16.31835938 C29.27333984 17.47529297 29.28300781 18.63222656 29.29296875 19.82421875 C29.3086792 20.88729248 29.32438965 21.95036621 29.34057617 23.0456543 C28.81157701 27.63448501 26.52507625 31.06243646 23 34 C17.29888772 35.90037076 11.16507916 35.73458043 5.5 33.8125 C2.6278721 31.73020727 1.55340375 30.17780911 0 27 C-0.34057617 23.95385742 -0.34057617 23.95385742 -0.29296875 20.60546875 C-0.28330078 19.40341797 -0.27363281 18.20136719 -0.26367188 16.96289062 C-0.23853516 15.71701172 -0.21339844 14.47113281 -0.1875 13.1875 C-0.17396484 11.92228516 -0.16042969 10.65707031 -0.14648438 9.35351562 C-0.11118318 6.23524357 -0.06186819 3.11783958 0 0 Z " fill="#38844F" transform="translate(234,433)"/>
<path d="M0 0 C1.2684375 -0.00773437 1.2684375 -0.00773437 2.5625 -0.015625 C5.13478811 0.26468845 6.7803108 0.9551813 9 2.25 C9 4.89 9 7.53 9 10.25 C8.38511719 10.09402344 7.77023438 9.93804687 7.13671875 9.77734375 C6.32847656 9.58269531 5.52023438 9.38804687 4.6875 9.1875 C3.88699219 8.99027344 3.08648437 8.79304688 2.26171875 8.58984375 C-0.15957179 8.05114446 -0.15957179 8.05114446 -3 9.25 C-3 10.24 -3 11.23 -3 12.25 C-2.15695313 12.64832031 -1.31390625 13.04664063 -0.4453125 13.45703125 C1.19824219 14.25173828 1.19824219 14.25173828 2.875 15.0625 C3.96554688 15.58457031 5.05609375 16.10664063 6.1796875 16.64453125 C9 18.25 9 18.25 11 21.25 C11.34061873 24.2669088 11.57212107 26.34407815 11 29.25 C8.82425584 31.94105198 7.08934144 33.70532928 4 35.25 C-2.33058054 35.78789246 -7.51174113 35.8099517 -13 32.25 C-13 29.61 -13 26.97 -13 24.25 C-12.41992188 24.47816406 -11.83984375 24.70632813 -11.2421875 24.94140625 C-6.42544204 26.71390499 -3.11525483 27.69276418 2 26.25 C2 25.59 2 24.93 2 24.25 C1.15695313 23.84007812 0.31390625 23.43015625 -0.5546875 23.0078125 C-1.65039062 22.46898437 -2.74609375 21.93015625 -3.875 21.375 C-5.51082031 20.57449219 -5.51082031 20.57449219 -7.1796875 19.7578125 C-10 18.25 -10 18.25 -12 16.25 C-13.13327056 11.39312618 -13.56736746 9.38473492 -11.3125 4.875 C-7.84511541 0.93904993 -5.20289488 -0.03172497 0 0 Z " fill="#37854E" transform="translate(146,432.75)"/>
<path d="M0 0 C3.3 0 6.6 0 10 0 C11.17094005 2.7899439 12.33690927 5.58178597 13.5 8.375 C13.83386719 9.1690625 14.16773437 9.963125 14.51171875 10.78125 C14.82753906 11.54179687 15.14335938 12.30234375 15.46875 13.0859375 C15.76201172 13.7876709 16.05527344 14.4894043 16.35742188 15.21240234 C17 17 17 17 17 19 C17.66 19 18.32 19 19 19 C19.17015625 18.46632813 19.3403125 17.93265625 19.515625 17.3828125 C21.43594335 11.47885503 23.65245791 5.74743064 26 0 C29.3 0 32.6 0 36 0 C31.04938095 11.35548245 26.04205925 22.68483326 21 34 C19.35 34 17.7 34 16 34 C10.27662534 22.82724202 5.00906244 11.51018603 0 0 Z " fill="#37864D" transform="translate(75,434)"/>
<path d="M0 0 C6.27 0 12.54 0 19 0 C19 2.31 19 4.62 19 7 C17.35 7 15.7 7 14 7 C14 13.6 14 20.2 14 27 C15.65 27 17.3 27 19 27 C19 29.31 19 31.62 19 34 C12.73 34 6.46 34 0 34 C0 31.69 0 29.38 0 27 C1.98 27 3.96 27 6 27 C6 20.4 6 13.8 6 7 C4.02 7 2.04 7 0 7 C0 4.69 0 2.38 0 0 Z " fill="#38834F" transform="translate(302,434)"/>
<path d="M0 0 C9.57 0 19.14 0 29 0 C29 2.31 29 4.62 29 7 C25.7 7 22.4 7 19 7 C19 15.91 19 24.82 19 34 C16.36 34 13.72 34 11 34 C11 25.09 11 16.18 11 7 C7.37 7 3.74 7 0 7 C0 4.69 0 2.38 0 0 Z " fill="#39834D" transform="translate(268,434)"/>
<path d="M0 0 C2.64 0 5.28 0 8 0 C8 8.91 8 17.82 8 27 C13.61 27 19.22 27 25 27 C25 29.31 25 31.62 25 34 C16.75 34 8.5 34 0 34 C0 22.78 0 11.56 0 0 Z " fill="#39834F" transform="translate(202,434)"/>
<path d="M0 0 C5.28 0 10.56 0 16 0 C16 2.31 16 4.62 16 7 C10.72 7 5.44 7 0 7 C0 4.69 0 2.38 0 0 Z " fill="#39834F" transform="translate(113,451)"/>
</svg>
